<svg width="137" xmlns="http://www.w3.org/2000/svg" height="137" fill="none"><path d="M68.5 0C106.306 0 137 30.694 137 68.5S106.306 137 68.5 137 0 106.306 0 68.5 30.694 0 68.5 0Z" style="fill: rgb(81, 111, 200); fill-opacity: 1;" class="fills"/><path d="M33.047 24.375s-9.909-3.093-11.89 0c-1.982 3.092-8.918 6.185-4.955 11.339 3.964 5.155 9.909 5.155 11.89 6.186 1.982 1.031 2.973-6.186 6.936-8.247 3.964-2.062 2.973-2.062 7.927-1.031s9.908 1.031 8.917-1.031c-.99-2.062-1.981-5.155-2.972-6.186-.991-1.03-3.963-3.092-8.918-1.03-4.954 2.061-6.935 0-6.935 0ZM110.454 24.15c0-.898-9.455 5.391-9.455 5.391s-17.56-8.086-13.508-3.594c4.053 4.492-6.753-1.797-4.052 4.492 2.702 6.289 9.455 6.289 12.157 7.187 2.701.899 10.806-.898 14.858.899 4.052 1.797 10.805 2.695 9.455 6.289-1.351 3.594 6.753 4.492 6.753.898 0-3.593 1.351-9.882-1.35-11.679-2.702-1.797-8.105-4.492-9.455-5.391-1.351-.898 0-4.492 0-5.39 0-.899-5.403.898-5.403.898ZM11 96.397c0-4 9-10 12-8s7 5 8 7 0 9 6 9 17-17 20-4 5 15 0 17-4 3-8 3-4-1-7-1-4 2-7-3-2-7-5-6-3 0-6 2 0-10 0-10 2-4 0-5c0 0-4-4-8-2s-5 1-5 1ZM118.617 96.655c-.77-.619-.547-3.263.298-3.526.845-.264 2.035-.563 2.573-.444.539.118 1.733 1.391 2.652.247.92-1.145-.668-5.872 2.294-4.434 2.963 1.438 3.654 1.365 3.273 2.628-.381 1.264-.035 1.227-.648 1.99-.613.764-.805.609-1.265 1.181-.459.572-.227 1.073-1.65.872-1.422-.201-1.654-.701-1.921.026-.267.727-.46.572-.534 1.454-.075.881-1.925-1.547-1.925-1.547s-.464-1-.963-.773c0 0-1.383.145-1.611 1.217-.228 1.073-.573 1.109-.573 1.109ZM94.85 50.8c-9.072-.674-10.976-1.918-8.131 2.044 2.845 3.963 9.072.674 6.653 6.452-2.419 5.778-3.382 7.252-4.815 7.366 0 0 13.809 7.976 15.243 7.862 1.433-.114 5.241 2.375 4.311-2.438-.93-4.813-2.341-8.89-2.33-10.986.011-2.095.515-7.023.515-7.023l-6.653-6.452L94.85 50.8ZM96.821 103.918c-6.143 3.501-4.122-.093-7.372 4.201-3.25 4.293-4.215 4.029-4.743 5.958-.529 1.929 1.4 2.457-2.722 2.365-4.122-.093-5.087-.357-5.615 1.572 0 0-1.321 4.822 1.572 5.615 2.893.793-1.493 1.665 4.822 1.321 6.315-.343 6.751 1.85 8.509-.779 1.757-2.629 2.285-4.558 4.214-4.029 0 0 6.223 3.778 6.751 1.85.529-1.929 1.229-.701.793-2.894-.436-2.193.529-1.929-1.136-3.422l-3.329-2.986s-1.401-2.457 3.95-3.065c5.351-.607 5.88-2.536 5.88-2.536s-.436-2.193-2.365-2.722c-1.929-.528-3.594-2.021-3.594-2.021l-5.615 1.572ZM72.403 63.302c-7.034-.721-3.301-2.47-8.441-.865-5.14 1.606-5.772.83-7.323 2.093-1.551 1.262-.288 2.813-3.589.342-3.301-2.47-3.932-3.246-5.483-1.983 0 0-3.878 3.156-1.984 5.483 1.894 2.326-2.182.487 3.157 3.877 5.339 3.391 4.419 5.429 7.377 4.311 2.958-1.119 4.509-2.381 5.771-.83 0 0 2.868 6.691 4.42 5.429 1.551-1.263 1.406.144 2.326-1.894.92-2.038 1.551-1.263 1.064-3.445l-.974-4.365s.288-2.814 4.996-.199c4.708 2.616 6.259 1.353 6.259 1.353s.919-2.038-.343-3.589c-1.263-1.551-1.75-3.734-1.75-3.734l-5.483-1.984ZM6 66s4 4 7 2 5 0 7 0 3-2 3-2-1-4-5-4-5-2-7 0-5 4-5 4ZM41 9.594s7.294 3.759 12.765 1.88c5.47-1.88 9.117 0 12.764 0 3.647 0 5.471-1.88 5.471-1.88s-1.824-3.759-9.118-3.759c-7.294 0-9.117-1.879-12.764 0C46.471 7.715 41 9.594 41 9.594Z" style="fill: rgb(56, 76, 141); fill-opacity: 1;" class="fills"/></svg>