<svg width="168.839" xmlns="http://www.w3.org/2000/svg" height="121.959" viewBox="-5.561 -16.782 168.839 121.959" fill="none"><path d="M65.904 10.334c23.321-5.704 46.885 8.6 52.589 31.921 5.703 23.321-8.6 46.885-31.921 52.588-23.322 5.703-46.886-8.6-52.589-31.921-5.703-23.321 8.6-46.885 31.921-52.588Z" style="fill: rgb(226, 221, 126); fill-opacity: 1;" class="fills"/><path d="M55.33 66.3s2.887 3.629-.738 3.457c-3.625-.172-7.558 1.097-13.148-1.302-5.591-2.399-5.222-4.128-6.266-4.953-1.044-.826 7.189.632 9.769-.022 2.581-.654 2.52-.366 1.66-2.055-.86-1.69-.552-3.13 1.721-2.344 2.273.787 5.714 1.823 6.819 2.36 1.106.538 3.256 1.901.614 2.842-2.642.942-.431 2.017-.431 2.017ZM98.924 34.364c-.211-.53-4.308 5.405-4.308 5.405s-12.26-.638-8.813 1.058c3.447 1.696-4.406.53-1.333 3.603 3.073 3.074 7.057 1.485 8.861 1.379 1.805-.105 6.163-3.072 8.975-2.966 2.813.106 7.008-.953 7.057 1.485.049 2.437 5.041 1.06 4.195-1.06-.846-2.119-1.529-6.147-3.545-6.571-2.016-.424-5.837-.742-6.845-.954-1.008-.213-1.057-2.65-1.269-3.18-.211-.53-2.975 1.801-2.975 1.801ZM103.387 80.529c-2.538.121-6.614-5.408-5.435-7.371 1.178-1.963 2.961-4.591 4.2-5.285 1.239-.694 5.709-.27 5.529-4.076-.18-3.806-11.294-10.274-3.138-12.567 8.157-2.293 9.365-3.621 10.784-.51 1.419 3.112 2.023 2.448 2.143 4.985.12 2.537-.514 2.567-.424 4.47.09 1.903 1.388 2.477-1.693 4.53-3.082 2.053-4.38 1.479-3.656 3.352.724 1.873.09 1.903 1.449 3.746 1.358 1.843-6.344.3-6.344.3s-2.597-1.148-3.171.15c0 0-2.417 2.658-1.029 5.135 1.389 2.477.785 3.141.785 3.141ZM66.272 87.734c.014-.627 1.431-1.538 1.891-1.215.459.323 1.071.807 1.22 1.124.148.316-.03 1.411.902 1.43.932.02 2.697-2.609 3.12-.561.423 2.047.727 2.368-.056 2.665-.784.297-.632.457-1.253.444-.621-.013-.618-.17-1.084-.18-.466-.01-.628.301-1.077-.493-.45-.794-.288-1.104-.757-.957-.47.147-.466-.01-.939.294-.473.304.033-1.568.033-1.568s.324-.62.017-.784c0 0-.609-.64-1.237-.339-.628.3-.78.14-.78.14ZM53.252 26.373c1.688 5.525 1.389 6.938 3.08 4.343 1.691-2.596-1.687-5.525 2.289-5.422 3.977.103 5.07.334 5.468 1.156 0 0 1.545-10.008 1.148-10.83-.397-.823.201-3.649-2.434-1.992-2.636 1.657-4.724 3.43-5.967 3.906-1.243.475-4.276 1.31-4.276 1.31l-2.289 5.422 2.981 2.107ZM76.794 84.5c3.826 2.351 1.208 2.323 4.591 2.821 3.384.497 3.531 1.115 4.767.82 1.235-.295.94-1.53 2.148.793 1.208 2.323 1.355 2.94 2.59 2.645 0 0 3.089-.738 2.646-2.591-.443-1.852 1.383.323-.738-3.088-2.12-3.411-1.033-4.323-3.033-4.498-2.001-.175-3.236.12-3.531-1.116 0 0 .202-4.618-1.033-4.323-1.235.295-.765-.47-1.853.443-1.088.912-1.235.295-1.558 1.677l-.645 2.766s-.94 1.531-2.913-1.263c-1.973-2.793-3.209-2.498-3.209-2.498s-1.087.913-.792 2.148c.295 1.236-.028 2.619-.028 2.619l2.591 2.645ZM82.332 19.032c-2.61 3.653-2.401 1.043-3.133 4.384-.731 3.34-1.357 3.445-1.149 4.697.209 1.253 1.461 1.045-.94 2.088-2.401 1.044-3.028 1.148-2.819 2.401 0 0 .521 3.132 2.401 2.819 1.879-.313-.418 1.357 3.132-.521 3.55-1.879 4.385-.73 4.698-2.714.314-1.983.105-3.236 1.358-3.445 0 0 4.593.523 4.385-.73-.209-1.252.522-.73-.313-1.879-.835-1.148-.209-1.253-1.566-1.671l-2.714-.835s-1.461-1.045 1.462-2.819c2.924-1.774 2.715-3.027 2.715-3.027s-.835-1.148-2.088-.94c-1.252.209-2.61-.209-2.61-.209l-2.819 2.401ZM57.973 36.031s-5.949-4.226-9.016-.83c-3.068 3.396-6.042 1.283-8.459 1.796-2.416.513-3.067 3.396-3.067 3.396s2.324 4.996 7.157 3.97c4.833-1.026 6.6 1.344 8.459-1.796 1.859-3.139 4.926-6.536 4.926-6.536ZM72.157 69.118s6.068 2.115 7.639-1.553c1.572-3.669 4.606-2.611 6.448-3.656 1.842-1.044 1.572-3.668 1.572-3.668s-3.305-3.682-6.989-1.594c-3.685 2.089-5.798.509-6.448 3.656-.651 3.146-2.222 6.815-2.222 6.815Z" style="fill: rgb(150, 147, 84); fill-opacity: 1;" class="fills"/><path d="M118.903 44.102a44.903 44.903 0 0 0-.41-1.847c-2.646-10.819-9.136-19.697-17.661-25.537 30.725-1.208 54.189 6.164 56.67 19.466 3.188 17.09-29.463 37.539-72.868 45.635C41.23 89.915 3.403 82.613.215 65.522c-2.288-12.268 13.889-26.265 39.254-36.183-5.094 8.09-7.55 17.866-6.463 27.877 10.722 11.002 30.21 15.766 50.304 10.851 15.968-3.905 28.776-13.054 35.593-23.965Z" style="fill: rgb(94, 92, 52); fill-opacity: 0.8;" class="fills"/></svg>