<svg width="232" xmlns="http://www.w3.org/2000/svg" height="232" fill="none"><path d="M116 0c64.022 0 116 51.978 116 116 0 64.022-51.978 116-116 116C51.978 232 0 180.022 0 116 0 51.978 51.978 0 116 0Z" style="fill: rgb(200, 114, 89); fill-opacity: 1;" class="fills"/><path d="M49.089 43.98s-17.817 8.048-18.17 13.864c-.353 5.817-8.277 17.411 2.238 18.634 10.516 1.222 19.601-5.71 23.521-6.852 3.921-1.142-.808-10.479 3.466-17.438 4.273-6.959 2.759-5.803 11.222-10.412 8.462-4.608 16.034-10.384 12.736-11.567-3.298-1.182-7.487-3.533-9.893-3.546-2.406-.013-8.733 1.115-14.52 9.23-5.788 8.114-10.6 8.087-10.6 8.087ZM93.192 119.71c.253-1.5-17.304 6.345-17.304 6.345s-27.05-18.439-21.546-9.798c5.504 8.64-10.773-4.899-8.03 6.362 2.744 11.262 14.022 13.16 18.28 15.42 4.259 2.259 18.298 1.537 24.56 5.677 6.261 4.139 17.287 7.538 14.021 13.16-3.266 5.621 10.016 9.4 11.026 3.398 1.01-6.001 5.033-16.124 1.027-19.884-4.006-3.76-12.271-9.779-14.274-11.659-2.003-1.88 1.263-7.502 1.515-9.002.253-1.5-9.275-.019-9.275-.019ZM125.728 215.495c-.44 6.759-16.309 15.907-21.158 12.198-4.85-3.71-11.279-9.22-12.749-12.71-1.469-3.49.991-15.209-9.148-15.869-10.139-.661-30.599 26.856-34.237 4.557-3.639-22.298-6.798-25.898 1.871-28.727 8.67-2.829 7.09-4.629 13.849-4.189 6.76.44 6.65 2.13 11.719 2.461 5.07.33 6.98-2.94 11.499 5.84 4.519 8.779 2.609 12.049 7.789 10.689 5.179-1.359 5.069.331 10.359-2.719 5.29-3.049-1.101 16.899-1.101 16.899s-3.82 6.539-.55 8.449c0 0 6.319 7.2 13.298 4.26 6.98-2.939 8.559-1.139 8.559-1.139ZM200.869 163.678c-1.304-1.047-.925-5.526.505-5.971 1.431-.446 3.446-.952 4.358-.752.912.201 2.934 2.357 4.491.418 1.557-1.938-1.132-9.943 3.885-7.508 5.017 2.435 6.187 2.312 5.542 4.451-.645 2.139-.059 2.078-1.097 3.37-1.038 1.292-1.364 1.031-2.142 2-.778.969-.386 1.816-2.794 1.476-2.409-.34-2.802-1.187-3.254.044-.452 1.231-.778.969-.904 2.462-.127 1.493-3.261-2.619-3.261-2.619s-.785-1.693-1.63-1.309c0 0-2.342.245-2.728 2.061-.385 1.816-.971 1.877-.971 1.877ZM148.473 29.212c-10.569 11.207-14.238 12.382-5.991 12.871 8.246.49 10.568-11.206 15.583-1.859 5.015 9.348 5.924 12.186 4.544 14.193 0 0 25.226-9.641 26.606-11.647 1.38-2.007 8.718-4.355 1.397-8.271-7.32-3.915-14.186-6.411-16.929-8.663-2.743-2.251-8.684-8.173-8.684-8.173l-15.583 1.859-.943 9.69ZM181.212 135.68c-10.404 5.929-6.981-.156-12.485 7.115s-7.137 6.823-8.032 10.09c-.895 3.266 2.371 4.161-4.609 4.004-6.981-.156-8.614-.604-9.509 2.662 0 0-2.238 8.167 2.662 9.509 4.9 1.343-2.528 2.819 8.166 2.238 10.695-.582 11.433 3.132 14.409-1.32 2.975-4.452 3.87-7.718 7.137-6.823 0 0 10.537 6.399 11.432 3.132.896-3.266 2.081-1.185 1.343-4.899s.895-3.267-1.924-5.795l-5.638-5.057s-2.371-4.161 6.69-5.19c9.061-1.029 9.956-4.295 9.956-4.295s-.738-3.714-4.004-4.609c-3.267-.895-6.086-3.424-6.086-3.424l-9.508 2.662ZM203.894 86.877c-11.912-1.221-5.589-4.184-14.294-1.465-8.705 2.718-9.774 1.405-12.4 3.543-2.627 2.138-.489 4.765-6.079.581-5.589-4.184-6.658-5.498-9.285-3.36 0 0-6.566 5.346-3.359 9.286 3.207 3.94-3.696.825 5.345 6.566 9.041 5.742 7.484 9.194 12.493 7.3 5.009-1.894 7.635-4.032 9.773-1.406 0 0 4.857 11.332 7.484 9.193 2.627-2.138 2.382.245 3.94-3.207 1.557-3.451 2.626-2.138 1.802-5.834l-1.65-7.391s.489-4.765 8.46-.336c7.972 4.428 10.599 2.29 10.599 2.29s1.558-3.451-.58-6.078c-2.139-2.627-2.963-6.322-2.963-6.322l-9.286-3.36ZM10.161 111.766s6.773 6.774 11.854 3.387c5.08-3.387 8.467 0 11.854 0 3.386 0 5.08-3.387 5.08-3.387s-1.694-6.773-8.467-6.773c-6.774 0-8.467-3.387-11.854 0-3.387 3.387-8.467 6.773-8.467 6.773ZM89.752 67.05s12.352 6.366 21.616 3.183 15.44 0 21.616 0 9.264-3.183 9.264-3.183-3.088-6.365-15.44-6.365-15.44-3.183-21.616 0c-6.176 3.182-15.44 6.365-15.44 6.365Z" style="fill: rgb(155, 88, 67); fill-opacity: 1;" class="fills"/></svg>