<svg width="149.195" xmlns="http://www.w3.org/2000/svg" height="137" fill="none"><path d="M68.5 0C106.306 0 137 30.694 137 68.5S106.306 137 68.5 137 0 106.306 0 68.5 30.694 0 68.5 0Z" style="fill: rgb(108, 122, 200); fill-opacity: 1;" class="fills"/><path d="M124.034 82.835s-4.891-.058-5.107 1.939c-.216 1.997-2.559 4.803.202 6.946 2.762 2.143 5.316 1.174 6.379 1.409 1.063.234.005-3.833 1.284-5.595 1.279-1.763.853-1.601 3.193-1.851s4.468-1.058 3.619-2.012c-.85-.955-1.911-2.467-2.548-2.863-.638-.397-2.338-1.028-4.043.896-1.704 1.924-2.979 1.131-2.979 1.131ZM29.957 75.6c.781.892-.007-9.459-.007-9.459s15.739.394 9.821-2.303c-5.917-2.697 4.911-1.151-1.901-6.219-6.812-5.067-10.159-2.132-12.28-1.85-2.12.282-4.572 5.587-8.144 5.565-3.572-.022-7.701 2.021-10.159-2.133-2.458-4.153-7.256-1.523-4.129 2.044 3.128 3.566 7.932 10.394 10.835 11.004 2.902.609 7.925.936 9.377 1.241 1.451.304 3.909 4.458 4.691 5.35.782.891 1.896-3.24 1.896-3.24ZM54.024 124.896c-2.435 3.173-13.228 2.455-14.39-.958-1.163-3.412-2.511-8.227-2.087-10.423.424-2.195 5.479-7.141.718-10.793-4.76-3.652-23.835 3.14-18.302-9 5.533-12.141 5.163-14.945 10.348-13.488 5.184 1.457 4.999.055 8.173 2.489 3.173 2.435 2.565 3.229 4.945 5.055 2.38 1.826 4.391.848 3.728 6.641-.664 5.793-2.675 6.771.314 7.804 2.989 1.033 2.381 1.826 5.978 2.065 3.598.24-6.087 7.934-6.087 7.934s-4.022 1.956-3.043 3.967c0 0 .738 5.609 5.129 6.457 4.391.848 4.576 2.25 4.576 2.25ZM134.586 77.583c-.773.614-3.303-.189-3.373-1.071-.069-.882-.098-2.109.137-2.608.234-.498 1.74-1.382.827-2.531-.913-1.15-5.874-.647-3.816-3.218 2.057-2.571 2.14-3.262 3.287-2.611 1.148.651 1.189.306 1.798 1.072.608.767.415.92.871 1.495.457.575.996.46.485 1.802-.51 1.343-1.049 1.458-.399 1.88.65.421.456.574 1.299.842.844.268-1.933 1.536-1.933 1.536s-1.078.231-.967.767c0 0-.165 1.381.83 1.84.996.46.954.805.954.805ZM61.457 48.936c-2.325 3.523-3.264 4.029-1.002 3.719 2.263-.309 2.326-3.523 4.14-1.32 1.815 2.203 2.199 2.905 1.922 3.508 0 0 6.38-3.888 6.658-4.492.277-.603 2.155-1.614-.023-2.259-2.177-.646-4.161-.94-5.015-1.389-.854-.449-2.754-1.697-2.754-1.697l-4.14 1.32.214 2.61ZM106.346 26.752c-9.174 4.085-6.33-.415-11.009 4.903-4.678 5.317-6.177 4.906-6.849 7.361-.673 2.456 2.324 3.277-4.006 2.862-6.33-.414-2.809 1.167-3.482 3.622 0 0-6.701 4.147-2.206 5.378 4.495 1.232-2.171 2.045 7.492 2.053 9.663.008 10.488 2.874 12.996-.398 2.507-3.273 3.18-5.728 6.177-4.907 0 0 9.815 5.329 10.488 2.874.673-2.455 1.835-.817 1.009-3.683-.825-2.866 3.91-2.022 7.044-.817 6.5 2.5 8-.5 8-.5s.5-.5-1-4.5c-2.87-7.654-6.674-9.321-6.674-9.321S123.997 26.821 121 26c-1.054-.289-1.576-2.468-2.5-3.5-1.705-1.903-3.5-3-3.5-3l-8.654 7.252Z" style="fill: rgb(76, 65, 45); fill-opacity: 1;" class="fills"/><path d="M101.447 44.232c-7.02.85-3.765-1.681-8.424 1.02-4.658 2.702-5.445 2.085-6.679 3.659-1.234 1.574.34 2.808-3.425 1.127-3.765-1.681-4.552-2.298-5.786-.724 0 0-3.085 3.935-.724 5.786 2.361 1.851-2.02.957 3.935 3.085 5.956 2.127 5.51 4.318 8.147 2.574 2.638-1.744 3.872-3.318 5.446-2.084 0 0 9.172 4.387 6.063 6.325-1.512.942-.492 2.136 0 2.5.954.707 3.192-.106 3.5-.5 1.234-1.574 3.053-2.309 3.5-4.5.447-2.191-3.63-4.13-5.426-5.462-2.074-1.538-1.914-4.042-1.914-4.042s-.341-2.808 4.828-1.297c5.169 1.51 6.403-.064 6.403-.064s.447-2.191-1.127-3.424c-1.574-1.234-2.531-3.255-2.531-3.255l-5.786-.724ZM107 62.5" style="fill: rgb(76, 65, 45); fill-opacity: 1;" class="fills"/><g style="opacity: 1;"><path d="M96.5 94s10.887 12.922 13 10c.376-.52 6.097.212 7-3 .961-3.419-4.436-7.852-5.5-10.5-3.558-8.851.814-9.058 2-9.5.952-.355 7.58-3.499 10-9.5.405-1.003 3.306-4.09 5.916-7.542 2.693-3.561 5.075-7.509 4.084-9.958-.122-.302-.732-9.87-1-10-.506-.244-5.277 1.071-6.5 1.5-3.007 1.056-7.454 7.775-8 7.5-2.6-1.31-4 10-4 10s-5.752 5.103-9.5 6.5c-3.748 1.397-12.5 7-21.004 9.023-1.784.424-7.452-2.738-7.996-2.023-.725.952-2.021 12.205-.5 14 .453.534 4.328 3.74 7 5.5 4.308 2.837 15-2 15-2Z" style="fill: rgb(76, 65, 45); fill-opacity: 1;" class="fills"/></g><path d="M73.242 37.605s3.589-7.064 1.257-12.045c-2.333-4.98-.538-8.512-.754-11.917-.215-3.405-2.332-4.98-2.332-4.98s-3.912 1.956-3.482 8.766c.431 6.81-1.471 8.64.754 11.918 2.225 3.277 4.557 8.258 4.557 8.258ZM95.917 48.082s-.414-5.657-3.959-6.97c-3.544-1.314-3.751-4.142-5.252-5.799-1.5-1.657-3.544-1.313-3.544-1.313s-1.837 3.171 1.164 6.485c3.002 3.313 2.458 5.313 5.252 5.798 2.794.485 6.339 1.799 6.339 1.799ZM85.131 66.312S87.452 53.201 83.5 57.5c-1.389 1.511-2.909-1.22-3.5-1.5-1.091-.516-.065-.17-1-.5-1.442-.51-6.127 6.481-6.127 6.481s-2.857 10.381.027 11.4c2.884 1.019.174 4.509 5.047 1.783 1.894-1.059 4.521 1.488 5.553.336 2.539-2.833 1.631-9.188 1.631-9.188ZM89.568 31.695s-7.034-3.648-8.041-9.055c-1.008-5.406-4.525-7.23-6.334-10.122-1.81-2.893-1.008-5.407-1.008-5.407s4.319-.69 7.939 5.094c3.619 5.785 6.231 6.163 6.334 10.123.102 3.96 1.11 9.367 1.11 9.367ZM113.56 30.611s-2.992-7.337-8.284-8.833c-5.292-1.496-6.788-5.165-9.503-7.231-2.716-2.065-5.292-1.496-5.292-1.496s-1.081 4.238 4.349 8.37c5.431 4.132 5.569 6.767 9.503 7.23 3.935.464 9.227 1.96 9.227 1.96Z" style="fill: rgb(76, 65, 45); fill-opacity: 1;" class="fills"/><path d="M104.16 11.304s-6.334-7.633-11.254-3.961c-4.919 3.671-8.087-.146-11.322-.204-3.234-.058-4.919 3.672-4.919 3.672s1.482 7.545 7.952 7.662c6.469.116 8.019 3.903 11.322.203 3.302-3.701 8.221-7.372 8.221-7.372Z" style="fill: rgb(76, 65, 45); fill-opacity: 1;" class="fills"/><path d="M91.705 12.599s1.124 9.855 7.251 9.475c6.127-.38 6.689 4.547 9.364 6.366 2.676 1.819 6.127-.38 6.127-.38s2.889-7.127-2.462-10.765c-5.351-3.638-4.575-7.656-9.364-6.366-4.789 1.29-10.916 1.67-10.916 1.67ZM79.14 14.949s6.939-1.381 3.818-3.463.348-2.772.488-3.881c.139-1.109-3.121-2.082-3.121-2.082s-6.73-.283-7.009 1.935c-.279 2.218-3.678 2.354-.488 3.882 3.191 1.527 6.312 3.609 6.312 3.609ZM62.676 47.557l-.45-1.822.151-1.157s.226.029.489-.231.489-.231.714-.202c.225.028 1.014 1.012 1.014 1.012l.15.607-2.068 1.793Z" style="fill: rgb(76, 65, 45); fill-opacity: 1;" class="fills"/><path d="M66.616 35.221c0 1.166-2.327 1.943-1.396 5.442.93 3.498 1.861 4.276 3.257 4.664 1.396.389 5.118 0 6.049 0s5.119-1.555 5.119-1.555 2.791-6.219 5.118-6.219c2.327 0 4.653-1.166 6.514-.777 1.862.388 3.723.388 3.723-.389s-.465-5.053-1.861-5.831c-1.396-.777-1.862-2.721-4.653-2.332-2.792.389-2.327-1.166-4.654.777-2.326 1.944-2.326 1.944-3.257 3.11-.93 1.166 0 1.166-2.792 1.555s-2.326-.389-5.584.389a92.31 92.31 0 0 1-5.583 1.166ZM84.108 84.675c0 .456-10.491 1.427-15 3.5-7.035 3.234-8.567 9.868-8 12 .93 3.499 5.604.111 7 .5.433.121 5.373-3.248 8.5-3.5 2.139-.172 2.079 3.137 4.5 2 5.425-2.547 10.556-8 11-8 .93 0 5.644 3.773 5.644 3.773s2.792-6.22 5.119-6.22c2.326 0 4.653-1.166 6.514-.777 1.861.388 3.723.388 3.723-.389 0-.243-.138-3.502-1-3.887-1.897-.846-5.541 1.035-6.5.5-1.396-.777 3.777-5.165.985-4.776-2.792.389-2.326-1.166-4.653.778-2.327 1.943-1.902-3.168-2.832-2.002-.931 1.166-3 1-4 3-1.261 2.521-1.544 3.277-4.801 4.055-3.257.777-6.199-.555-6.199-.555ZM23.982 110.104c0-.402-3.624-1.261-5.181-3.091-2.43-2.856-2.96-8.717-2.764-10.6.322-3.09 1.936-.098 2.418-.441.15-.107 1.856 2.868 2.936 3.091.739.153.719-2.77 1.555-1.766 1.874 2.249 3.647 7.066 3.8 7.066.321 0 1.95-3.332 1.95-3.332s.964 5.493 1.768 5.493c.803 0 1.607 1.03 2.25.687.643-.344 1.286-.344 1.286.343 0 .215-.048 3.094-.345 3.433-.656.748-1.914-.913-2.246-.441-.482.686 1.305 4.561.341 4.218-.965-.343-.804 1.03-1.608-.687-.803-1.716-.657 2.798-.978 1.768-.322-1.03-1.036-.883-1.382-2.65-.435-2.226-.533-2.894-1.658-3.581-1.125-.687-2.142.49-2.142.49ZM49.629 116.681c-.42.795-2.757.24-3.193 3.061-.437 2.821.107 3.786 1.201 4.703 1.095.916 4.527 2.388 5.351 2.822.823.435 5.086 1.328 5.086 1.328s4.708-2.941 6.766-1.855c2.058 1.086 4.535 1.376 6.042 2.509 1.506 1.134 3.152 2.003 3.432 1.472.28-.53 1.408-3.665.453-4.847-.955-1.181-.667-2.725-3.276-3.762-2.61-1.038-1.638-1.881-4.396-1.641-2.757.24-2.757.24-4 .602-1.243.361-.42.795-3.029-.242-2.609-1.038-1.918-1.351-5.078-2.34-3.161-.99-5.359-1.81-5.359-1.81ZM25.35 66.448c-.419.796-4.128-3.578-4.564-.757-.436 2.821.107 3.786 1.202 4.702 1.094.917 1.039-2.379 1.862-1.945.823.435 4.5 1 4.5 1s.858 2.705 2 3c2.706.7 7.394-.523 8.84.24 2.058 1.086-.846 2.627.66 3.76 1.507 1.134 8.535.752 8.814.222.28-.531 1.408-3.665.453-4.847-.955-1.182-.667-2.725-3.276-3.763-2.609-1.037-1.638-1.881-4.395-1.641-2.758.241-2.758.241-4.001.602-1.242.362-.485 2.465-3.095 1.427-2.609-1.037-1.851-3.02-5.012-4.009-3.161-.99-3.988 2.009-3.988 2.009ZM54.893 9.347c-.173-.883 5.46.198 4.03-2.273-1.43-2.471-2.458-2.881-3.886-2.909-1.427-.027.683 2.505-.231 2.683-.913.178-4.132 2.044-4.132 2.044S48.31 7.323 47.235 7.81c-2.546 1.152-5.43 5.045-7.036 5.358-2.283.445-.988-2.577-2.872-2.515-1.884.062-7.118 4.767-7.003 5.356.114.589 1.202 3.737 2.687 4.059 1.485.321 2.228 1.704 4.911.876 2.683-.829 2.456.437 4.453-1.479 1.997-1.917 1.997-1.917 2.738-2.978.741-1.061-1.167-2.224 1.515-3.053 2.683-.828 3.337 1.191 6.419-.021 3.083-1.212 1.846-4.066 1.846-4.066Z" style="fill: rgb(227, 228, 233); fill-opacity: 1;" class="fills"/></svg>